<svg width="535" height="90" viewBox="0 0 535 90" fill="none" xmlns="http://www.w3.org/2000/svg">
<path d="M0.000475407 40.5309H118.102C118.102 17.1148 97.7622 11.2607 87.5924 11.2607H0.000475407V40.5309Z" fill="white"/>
<path d="M118.101 59.7093L-2.49515e-06 59.7093C-4.9903e-07 83.1255 20.3397 88.9795 30.5095 88.9795L118.101 88.9795L118.101 59.7093Z" fill="white"/>
<path d="M226.805 9.7604V88.9786H210.96V37.4527L189.795 88.9786H177.798L156.52 37.4527V88.9786H140.674V9.7604H158.67L183.796 68.6633L208.922 9.7604H226.805Z" fill="white"/>
<path d="M238.396 57.314C238.396 50.9584 239.641 45.3216 242.131 40.4035C244.697 35.4855 248.13 31.7024 252.431 29.0542C256.807 26.4061 261.674 25.082 267.031 25.082C271.709 25.082 275.784 26.0277 279.255 27.9193C282.801 29.8108 285.631 32.1942 287.743 35.0694V26.1034H303.702V88.9786H287.743V79.7856C285.706 82.7364 282.877 85.1955 279.255 87.1627C275.708 89.0542 271.596 90 266.918 90C261.636 90 256.807 88.6381 252.431 85.9142C248.13 83.1904 244.697 79.3695 242.131 74.4514C239.641 69.4578 238.396 63.7453 238.396 57.314ZM287.743 57.541C287.743 53.6822 286.989 50.3909 285.48 47.6671C283.971 44.8676 281.933 42.7491 279.368 41.3115C276.803 39.7982 274.048 39.0416 271.106 39.0416C268.163 39.0416 265.447 39.7604 262.957 41.198C260.467 42.6356 258.429 44.7541 256.845 47.5536C255.336 50.2774 254.581 53.5309 254.581 57.314C254.581 61.0971 255.336 64.4262 256.845 67.3014C258.429 70.1009 260.467 72.2572 262.957 73.7705C265.522 75.2837 268.238 76.0404 271.106 76.0404C274.048 76.0404 276.803 75.3216 279.368 73.884C281.933 72.3707 283.971 70.2522 285.48 67.5284C286.989 64.7289 287.743 61.3997 287.743 57.541Z" fill="white"/>
<path d="M315.103 57.314C315.103 50.9584 316.348 45.3216 318.838 40.4035C321.404 35.4855 324.874 31.7024 329.251 29.0542C333.627 26.4061 338.494 25.082 343.851 25.082C347.926 25.082 351.812 25.9899 355.509 27.8058C359.206 29.546 362.149 31.8916 364.337 34.8424V4.9937H380.409V88.9786H364.337V79.6721C362.375 82.7743 359.621 85.2711 356.075 87.1627C352.528 89.0542 348.416 90 343.738 90C338.456 90 333.627 88.6381 329.251 85.9142C324.874 83.1904 321.404 79.3695 318.838 74.4514C316.348 69.4578 315.103 63.7453 315.103 57.314ZM364.45 57.541C364.45 53.6822 363.696 50.3909 362.186 47.6671C360.677 44.8676 358.64 42.7491 356.075 41.3115C353.509 39.7982 350.755 39.0416 347.812 39.0416C344.87 39.0416 342.153 39.7604 339.663 41.198C337.173 42.6356 335.136 44.7541 333.552 47.5536C332.043 50.2774 331.288 53.5309 331.288 57.314C331.288 61.0971 332.043 64.4262 333.552 67.3014C335.136 70.1009 337.173 72.2572 339.663 73.7705C342.229 75.2837 344.945 76.0404 347.812 76.0404C350.755 76.0404 353.509 75.3216 356.075 73.884C358.64 72.3707 360.677 70.2522 362.186 67.5284C363.696 64.7289 364.45 61.3997 364.45 57.541Z" fill="white"/>
<path d="M411.73 35.8638C413.767 32.5347 416.408 29.9243 419.652 28.0328C422.972 26.1412 426.745 25.1955 430.971 25.1955V41.8789H426.783C421.803 41.8789 418.03 43.0517 415.465 45.3972C412.975 47.7428 411.73 51.8285 411.73 57.6545V88.9786H395.884V26.1034H411.73V35.8638Z" fill="white"/>
<path d="M449.679 18.6129C446.887 18.6129 444.548 17.7428 442.662 16.0025C440.851 14.1866 439.945 11.9546 439.945 9.30643C439.945 6.65826 440.851 4.46406 442.662 2.72383C444.548 0.907946 446.887 0 449.679 0C452.471 0 454.772 0.907946 456.583 2.72383C458.469 4.46406 459.413 6.65826 459.413 9.30643C459.413 11.9546 458.469 14.1866 456.583 16.0025C454.772 17.7428 452.471 18.6129 449.679 18.6129ZM457.489 26.1034V88.9786H441.643V26.1034H457.489Z" fill="white"/>
<path d="M469.069 57.314C469.069 50.9584 470.314 45.3216 472.804 40.4035C475.37 35.4855 478.841 31.7024 483.217 29.0542C487.593 26.4061 492.46 25.082 497.817 25.082C501.892 25.082 505.778 25.9899 509.475 27.8058C513.172 29.546 516.115 31.8916 518.303 34.8424V4.9937H534.375V88.9786H518.303V79.6721C516.341 82.7743 513.587 85.2711 510.041 87.1627C506.495 89.0542 502.382 90 497.704 90C492.422 90 487.593 88.6381 483.217 85.9142C478.841 83.1904 475.37 79.3695 472.804 74.4514C470.314 69.4578 469.069 63.7453 469.069 57.314ZM518.416 57.541C518.416 53.6822 517.662 50.3909 516.153 47.6671C514.644 44.8676 512.606 42.7491 510.041 41.3115C507.475 39.7982 504.721 39.0416 501.779 39.0416C498.836 39.0416 496.12 39.7604 493.63 41.198C491.14 42.6356 489.102 44.7541 487.518 47.5536C486.009 50.2774 485.254 53.5309 485.254 57.314C485.254 61.0971 486.009 64.4262 487.518 67.3014C489.102 70.1009 491.14 72.2572 493.63 73.7705C496.195 75.2837 498.911 76.0404 501.779 76.0404C504.721 76.0404 507.475 75.3216 510.041 73.884C512.606 72.3707 514.644 70.2522 516.153 67.5284C517.662 64.7289 518.416 61.3997 518.416 57.541Z" fill="white"/>
</svg>
